solid numpad 1.0
facet normal -0.0031283626237278606 -4.930678583976318e-15 -0.9999951066616749
  outer loop
    vertex 34.46367777915688 64.84931299314417 19.865845707613826
    vertex 35.246831100225855 63.84931299314541 19.863395708046873
    vertex 34.46367777915846 63.84931299314417 19.865845707613826
  endloop
endfacet
facet normal -0.0031283626237278606 -4.930678583976318e-15 -0.9999951066616749
  outer loop
    vertex 35.246831100225855 63.84931299314541 19.863395708046873
    vertex 34.46367777915688 64.84931299314417 19.865845707613826
    vertex 35.24683110022428 64.8493129931454 19.863395708046873
  endloop
endfacet
facet normal -0.5027067948352353 -7.92326825672136e-13 -0.864456984717276
  outer loop
    vertex 36.00266501243892 64.8493129931466 19.658334195463222
    vertex 36.67967068375955 63.84931299314766 19.264635773065283
    vertex 36.002665012440495 63.84931299314659 19.658334195463222
  endloop
endfacet
facet normal -0.5027067948352353 -7.92326825672136e-13 -0.864456984717276
  outer loop
    vertex 36.67967068375955 63.84931299314766 19.264635773065283
    vertex 36.00266501243892 64.8493129931466 19.658334195463222
    vertex 36.67967068375797 64.84931299314766 19.264635773065283
  endloop
endfacet
facet normal -0.7093154074990857 -1.117967035651937e-12 -0.7048912346485847
  outer loop
    vertex 37.23171129648578 64.84931299314853 18.709130337722065
    vertex 36.67967068375955 63.84931299314766 19.264635773065283
    vertex 36.67967068375797 64.84931299314766 19.264635773065283
  endloop
endfacet
facet normal -0.7093154074990857 -1.117967035651937e-12 -0.7048912346485847
  outer loop
    vertex 36.67967068375955 63.84931299314766 19.264635773065283
    vertex 37.23171129648578 64.84931299314853 18.709130337722065
    vertex 37.231711296487354 63.84931299314854 18.709130337722065
  endloop
endfacet
facet normal -0.8675853473410046 -1.3674196396799338e-12 -0.4972883118264378
  outer loop
    vertex 37.62116619515523 64.84931299314916 18.029674666836073
    vertex 37.231711296487354 63.84931299314854 18.709130337722065
    vertex 37.23171129648578 64.84931299314853 18.709130337722065
  endloop
endfacet
facet normal -0.8675853473410046 -1.3674196396799338e-12 -0.4972883118264378
  outer loop
    vertex 37.231711296487354 63.84931299314854 18.709130337722065
    vertex 37.62116619515523 64.84931299314916 18.029674666836073
    vertex 37.62116619515681 63.849312993149155 18.029674666836073
  endloop
endfacet
facet normal -0.9999951066616749 -1.5761134655210339e-12 0.0031283626237278658
  outer loop
    vertex 37.8190446724597 64.84931299314945 16.4894192204572
    vertex 37.82149467202824 63.84931299314947 17.272572541524596
    vertex 37.82149467202666 64.84931299314947 17.272572541524596
  endloop
endfacet
facet normal -0.9999951066616749 -1.5761134655210339e-12 0.0031283626237278658
  outer loop
    vertex 37.82149467202824 63.84931299314947 17.272572541524596
    vertex 37.8190446724597 64.84931299314945 16.4894192204572
    vertex 37.819044672461274 63.84931299314946 16.4894192204572
  endloop
endfacet
facet normal -0.965111419860195 -1.5211325479859183e-12 0.26183954486562644
  outer loop
    vertex 37.61398315987604 64.84931299314914 15.733585308242567
    vertex 37.819044672461274 63.84931299314946 16.4894192204572
    vertex 37.8190446724597 64.84931299314945 16.4894192204572
  endloop
endfacet
facet normal -0.965111419860195 -1.5211325479859183e-12 0.26183954486562644
  outer loop
    vertex 37.819044672461274 63.84931299314946 16.4894192204572
    vertex 37.61398315987604 64.84931299314914 15.733585308242567
    vertex 37.61398315987762 63.84931299314914 15.733585308242567
  endloop
endfacet
facet normal -0.864456984717276 -1.3624889610959562e-12 0.5027067948352353
  outer loop
    vertex 37.2202847374781 64.84931299314852 15.056579636923525
    vertex 37.61398315987762 63.84931299314914 15.733585308242567
    vertex 37.61398315987604 64.84931299314914 15.733585308242567
  endloop
endfacet
facet normal -0.864456984717276 -1.3624889610959562e-12 0.5027067948352353
  outer loop
    vertex 37.61398315987762 63.84931299314914 15.733585308242567
    vertex 37.2202847374781 64.84931299314852 15.056579636923525
    vertex 37.22028473747968 63.84931299314852 15.056579636923525
  endloop
endfacet
facet normal 0.7048912346485857 1.1109940031267704e-12 -0.7093154074990848
  outer loop
    vertex 32.47161454761619 64.84931299314103 18.72402171934513
    vertex 33.027119982961004 63.849312993141915 19.276062332072957
    vertex 32.47161454761777 63.849312993141034 18.72402171934513
  endloop
endfacet
facet normal 0.7048912346485857 1.1109940031267704e-12 -0.7093154074990848
  outer loop
    vertex 33.027119982961004 63.849312993141915 19.276062332072957
    vertex 32.47161454761619 64.84931299314103 18.72402171934513
    vertex 33.027119982959434 64.84931299314191 19.276062332072957
  endloop
endfacet
facet normal 0.2557960123611097 4.031655123339822e-13 -0.9667307795142115
  outer loop
    vertex 33.70657565384542 64.84931299314299 19.665517230742413
    vertex 34.46367777915846 63.84931299314417 19.865845707613826
    vertex 33.706575653847 63.84931299314298 19.665517230742413
  endloop
endfacet
facet normal 0.2557960123611097 4.031655123339822e-13 -0.9667307795142115
  outer loop
    vertex 34.46367777915846 63.84931299314417 19.865845707613826
    vertex 33.70657565384542 64.84931299314299 19.665517230742413
    vertex 34.46367777915688 64.84931299314417 19.865845707613826
  endloop
endfacet
facet normal -0.2618395448656269 -4.12690851904776e-13 -0.9651114198601949
  outer loop
    vertex 35.24683110022428 64.8493129931454 19.863395708046873
    vertex 36.002665012440495 63.84931299314659 19.658334195463222
    vertex 35.246831100225855 63.84931299314541 19.863395708046873
  endloop
endfacet
facet normal -0.2618395448656269 -4.12690851904776e-13 -0.9651114198601949
  outer loop
    vertex 36.002665012440495 63.84931299314659 19.658334195463222
    vertex 35.24683110022428 64.8493129931454 19.863395708046873
    vertex 36.00266501243892 64.8493129931466 19.658334195463222
  endloop
endfacet
facet normal -0.9667307795142115 -1.5236848550315448e-12 -0.2557960123611097
  outer loop
    vertex 37.82149467202666 64.84931299314947 17.272572541524596
    vertex 37.62116619515681 63.849312993149155 18.029674666836073
    vertex 37.62116619515523 64.84931299314916 18.029674666836073
  endloop
endfacet
facet normal -0.9667307795142115 -1.5236848550315448e-12 -0.2557960123611097
  outer loop
    vertex 37.62116619515681 63.849312993149155 18.029674666836073
    vertex 37.82149467202666 64.84931299314947 17.272572541524596
    vertex 37.82149467202824 63.84931299314947 17.272572541524596
  endloop
endfacet
facet normal 0.8644569847172752 1.362488961095955e-12 -0.5027067948352366
  outer loop
    vertex 32.07791612521983 63.849312993140416 18.04701604802609
    vertex 32.47161454761619 64.84931299314103 18.72402171934513
    vertex 32.47161454761777 63.849312993141034 18.72402171934513
  endloop
endfacet
facet normal 0.8644569847172752 1.362488961095955e-12 -0.5027067948352366
  outer loop
    vertex 32.47161454761619 64.84931299314103 18.72402171934513
    vertex 32.07791612521983 63.849312993140416 18.04701604802609
    vertex 32.07791612521826 64.84931299314042 18.04701604802609
  endloop
endfacet
facet normal 0.9651114198601948 1.521132547985918e-12 -0.2618395448656273
  outer loop
    vertex 31.87285461263618 63.84931299314009 17.291182135811457
    vertex 32.07791612521826 64.84931299314042 18.04701604802609
    vertex 32.07791612521983 63.849312993140416 18.04701604802609
  endloop
endfacet
facet normal 0.9651114198601948 1.521132547985918e-12 -0.2618395448656273
  outer loop
    vertex 32.07791612521826 64.84931299314042 18.04701604802609
    vertex 31.87285461263618 63.84931299314009 17.291182135811457
    vertex 31.872854612634598 64.84931299314009 17.291182135811457
  endloop
endfacet
facet normal 0.4972883118264378 7.837866398488951e-13 -0.8675853473410046
  outer loop
    vertex 33.027119982959434 64.84931299314191 19.276062332072957
    vertex 33.706575653847 63.84931299314298 19.665517230742413
    vertex 33.027119982961004 63.849312993141915 19.276062332072957
  endloop
endfacet
facet normal 0.4972883118264378 7.837866398488951e-13 -0.8675853473410046
  outer loop
    vertex 33.706575653847 63.84931299314298 19.665517230742413
    vertex 33.027119982959434 64.84931299314191 19.276062332072957
    vertex 33.70657565384542 64.84931299314299 19.665517230742413
  endloop
endfacet
facet normal 0.5027067948352372 7.92326825672139e-13 0.8644569847172747
  outer loop
    vertex 33.6892342726554 64.84931299314295 14.122267160805434
    vertex 33.01222860133793 63.84931299314189 14.515965583203375
    vertex 33.689234272656975 63.84931299314295 14.122267160805434
  endloop
endfacet
facet normal 0.5027067948352372 7.92326825672139e-13 0.8644569847172747
  outer loop
    vertex 33.01222860133793 63.84931299314189 14.515965583203375
    vertex 33.6892342726554 64.84931299314295 14.122267160805434
    vertex 33.01222860133635 64.8493129931419 14.515965583203375
  endloop
endfacet
facet normal 0.7093154074990848 1.1179670356519356e-12 0.7048912346485856
  outer loop
    vertex 33.01222860133793 63.84931299314189 14.515965583203375
    vertex 32.46018798860852 64.84931299314101 15.071471018546596
    vertex 32.460187988610095 63.84931299314101 15.071471018546596
  endloop
endfacet
facet normal 0.7093154074990848 1.1179670356519356e-12 0.7048912346485856
  outer loop
    vertex 32.46018798860852 64.84931299314101 15.071471018546596
    vertex 33.01222860133793 63.84931299314189 14.515965583203375
    vertex 33.01222860133635 64.8493129931419 14.515965583203375
  endloop
endfacet
facet normal 0.8675853473410046 1.3674196396799338e-12 0.4972883118264378
  outer loop
    vertex 32.460187988610095 63.84931299314101 15.071471018546596
    vertex 32.07073308993908 64.8493129931404 15.750926689432585
    vertex 32.07073308994066 63.8493129931404 15.750926689432585
  endloop
endfacet
facet normal 0.8675853473410046 1.3674196396799338e-12 0.4972883118264378
  outer loop
    vertex 32.07073308993908 64.8493129931404 15.750926689432585
    vertex 32.460187988610095 63.84931299314101 15.071471018546596
    vertex 32.46018798860852 64.84931299314101 15.071471018546596
  endloop
endfacet
facet normal 0.9667307795142115 1.5236848550315448e-12 0.2557960123611097
  outer loop
    vertex 32.07073308994066 63.8493129931404 15.750926689432585
    vertex 31.870404613067663 64.84931299314009 16.508028814744062
    vertex 31.870404613069237 63.84931299314009 16.508028814744062
  endloop
endfacet
facet normal 0.9667307795142115 1.5236848550315448e-12 0.2557960123611097
  outer loop
    vertex 31.870404613067663 64.84931299314009 16.508028814744062
    vertex 32.07073308994066 63.8493129931404 15.750926689432585
    vertex 32.07073308993908 64.8493129931404 15.750926689432585
  endloop
endfacet
facet normal -0.25579601236110927 -4.031655123339815e-13 0.9667307795142117
  outer loop
    vertex 35.9853236312489 64.84931299314657 14.115084125526247
    vertex 35.22822150593899 63.849312993145375 13.91475564865483
    vertex 35.98532363125047 63.84931299314657 14.115084125526247
  endloop
endfacet
facet normal -0.25579601236110927 -4.031655123339815e-13 0.9667307795142117
  outer loop
    vertex 35.22822150593899 63.849312993145375 13.91475564865483
    vertex 35.9853236312489 64.84931299314657 14.115084125526247
    vertex 35.22822150593741 64.84931299314538 13.91475564865483
  endloop
endfacet
facet normal 0.003128362623731461 4.9306785839819925e-15 0.9999951066616749
  outer loop
    vertex 35.22822150593741 64.84931299314538 13.91475564865483
    vertex 34.445068184871594 63.849312993144146 13.917205648221785
    vertex 35.22822150593899 63.849312993145375 13.91475564865483
  endloop
endfacet
facet normal 0.003128362623731461 4.9306785839819925e-15 0.9999951066616749
  outer loop
    vertex 34.445068184871594 63.849312993144146 13.917205648221785
    vertex 35.22822150593741 64.84931299314538 13.91475564865483
    vertex 34.44506818487002 64.84931299314414 13.917205648221785
  endloop
endfacet
facet normal 0.26183954486562394 4.1269085190477134e-13 0.9651114198601957
  outer loop
    vertex 34.44506818487002 64.84931299314414 13.917205648221785
    vertex 33.689234272656975 63.84931299314295 14.122267160805434
    vertex 34.445068184871594 63.849312993144146 13.917205648221785
  endloop
endfacet
facet normal 0.26183954486562394 4.1269085190477134e-13 0.9651114198601957
  outer loop
    vertex 33.689234272656975 63.84931299314295 14.122267160805434
    vertex 34.44506818487002 64.84931299314414 13.917205648221785
    vertex 33.6892342726554 64.84931299314295 14.122267160805434
  endloop
endfacet
facet normal 0.999995106661675 1.576113465521034e-12 -0.003128362623727855
  outer loop
    vertex 31.870404613069237 63.84931299314009 16.508028814744062
    vertex 31.872854612634598 64.84931299314009 17.291182135811457
    vertex 31.87285461263618 63.84931299314009 17.291182135811457
  endloop
endfacet
facet normal 0.999995106661675 1.576113465521034e-12 -0.003128362623727855
  outer loop
    vertex 31.872854612634598 64.84931299314009 17.291182135811457
    vertex 31.870404613069237 63.84931299314009 16.508028814744062
    vertex 31.870404613067663 64.84931299314009 16.508028814744062
  endloop
endfacet
facet normal -1.3174183965958264e-13 0.0 1.0
  outer loop
    vertex 39.345949642546515 64.84931299315187 21.818300678134875
    vertex 30.345949642549662 62.84931299313769 21.818300678133692
    vertex 39.34594964254966 62.84931299315188 21.818300678134875
  endloop
endfacet
facet normal -1.3174183965958264e-13 0.0 1.0
  outer loop
    vertex 30.345949642549662 62.84931299313769 21.818300678133692
    vertex 39.345949642546515 64.84931299315187 21.818300678134875
    vertex 30.345949642546508 64.84931299313769 21.818300678133692
  endloop
endfacet
facet normal -1.0 -1.5761211780152e-12 -1.3174183965958264e-13
  outer loop
    vertex 30.345949642548117 64.84931299313769 9.590300678133739
    vertex 30.345949642549662 62.84931299313769 21.818300678133692
    vertex 30.345949642546508 64.84931299313769 21.818300678133692
  endloop
endfacet
facet normal -1.0 -1.5761211780152e-12 -1.3174183965958264e-13
  outer loop
    vertex 30.345949642549662 62.84931299313769 21.818300678133692
    vertex 30.345949642548117 64.84931299313769 9.590300678133739
    vertex 30.34594964255101 62.84931299313769 11.590300678133737
  endloop
endfacet
facet normal -1.0 -1.5761211780152e-12 -1.3174183965958264e-13
  outer loop
    vertex 30.34594964255101 62.84931299313769 11.590300678133737
    vertex 30.345949642548117 64.84931299313769 9.590300678133739
    vertex 30.34594964255598 59.69531299313767 11.590300678133737
  endloop
endfacet
facet normal -1.0 -1.5761211780152e-12 -1.3174183965958264e-13
  outer loop
    vertex 30.34594964255598 59.69531299313767 11.590300678133737
    vertex 30.345949642548117 64.84931299313769 9.590300678133739
    vertex 30.345949642556242 59.69531299313767 9.590300678133739
  endloop
endfacet
facet normal 1.3174183965958264e-13 0.0 -1.0
  outer loop
    vertex 30.345949642548117 64.84931299313769 9.590300678133739
    vertex 39.34594964255625 59.695312993151866 9.590300678134923
    vertex 30.345949642556242 59.69531299313767 9.590300678133739
  endloop
endfacet
facet normal 1.3174183965958264e-13 0.0 -1.0
  outer loop
    vertex 39.34594964255625 59.695312993151866 9.590300678134923
    vertex 30.345949642548117 64.84931299313769 9.590300678133739
    vertex 39.34594964254813 64.84931299315187 9.590300678134923
  endloop
endfacet
facet normal -1.5761211780152e-12 1.0 -2.0764110351815097e-25
  outer loop
    vertex 30.345949642546508 64.84931299313769 21.818300678133692
    vertex 31.872854612634598 64.84931299314009 17.291182135811457
    vertex 30.345949642548117 64.84931299313769 9.590300678133739
  endloop
endfacet
facet normal -1.5761211780152e-12 1.0 -2.0764110351815097e-25
  outer loop
    vertex 31.872854612634598 64.84931299314009 17.291182135811457
    vertex 30.345949642546508 64.84931299313769 21.818300678133692
    vertex 32.07791612521826 64.84931299314042 18.04701604802609
  endloop
endfacet
facet normal -1.5761211780152e-12 1.0 -2.0764110351815097e-25
  outer loop
    vertex 32.07791612521826 64.84931299314042 18.04701604802609
    vertex 30.345949642546508 64.84931299313769 21.818300678133692
    vertex 32.47161454761619 64.84931299314103 18.72402171934513
  endloop
endfacet
facet normal -1.5761211780152e-12 1.0 -2.0764110351815097e-25
  outer loop
    vertex 32.47161454761619 64.84931299314103 18.72402171934513
    vertex 30.345949642546508 64.84931299313769 21.818300678133692
    vertex 33.027119982959434 64.84931299314191 19.276062332072957
  endloop
endfacet
facet normal -1.5761211780152e-12 1.0 -2.0764110351815097e-25
  outer loop
    vertex 33.027119982959434 64.84931299314191 19.276062332072957
    vertex 30.345949642546508 64.84931299313769 21.818300678133692
    vertex 33.70657565384542 64.84931299314299 19.665517230742413
  endloop
endfacet
facet normal -1.5761211780152e-12 1.0 -2.0764110351815097e-25
  outer loop
    vertex 33.70657565384542 64.84931299314299 19.665517230742413
    vertex 30.345949642546508 64.84931299313769 21.818300678133692
    vertex 39.345949642546515 64.84931299315187 21.818300678134875
  endloop
endfacet
facet normal -1.5761211780152e-12 1.0 -2.0764110351815097e-25
  outer loop
    vertex 30.345949642548117 64.84931299313769 9.590300678133739
    vertex 31.872854612634598 64.84931299314009 17.291182135811457
    vertex 31.870404613067663 64.84931299314009 16.508028814744062
  endloop
endfacet
facet normal -1.5761211780152e-12 1.0 -2.0764110351815097e-25
  outer loop
    vertex 33.70657565384542 64.84931299314299 19.665517230742413
    vertex 39.345949642546515 64.84931299315187 21.818300678134875
    vertex 34.46367777915688 64.84931299314417 19.865845707613826
  endloop
endfacet
facet normal -1.5761211780152e-12 1.0 -2.0764110351815097e-25
  outer loop
    vertex 34.46367777915688 64.84931299314417 19.865845707613826
    vertex 39.345949642546515 64.84931299315187 21.818300678134875
    vertex 35.24683110022428 64.8493129931454 19.863395708046873
  endloop
endfacet
facet normal -1.5761211780152e-12 1.0 -2.0764110351815097e-25
  outer loop
    vertex 35.24683110022428 64.8493129931454 19.863395708046873
    vertex 39.345949642546515 64.84931299315187 21.818300678134875
    vertex 36.00266501243892 64.8493129931466 19.658334195463222
  endloop
endfacet
facet normal -1.5761211780152e-12 1.0 -2.0764110351815097e-25
  outer loop
    vertex 36.00266501243892 64.8493129931466 19.658334195463222
    vertex 39.345949642546515 64.84931299315187 21.818300678134875
    vertex 36.67967068375797 64.84931299314766 19.264635773065283
  endloop
endfacet
facet normal -1.5761211780152e-12 1.0 -2.0764110351815097e-25
  outer loop
    vertex 36.67967068375797 64.84931299314766 19.264635773065283
    vertex 39.345949642546515 64.84931299315187 21.818300678134875
    vertex 37.23171129648578 64.84931299314853 18.709130337722065
  endloop
endfacet
facet normal -1.5761211780152e-12 1.0 -2.0764110351815097e-25
  outer loop
    vertex 37.23171129648578 64.84931299314853 18.709130337722065
    vertex 39.345949642546515 64.84931299315187 21.818300678134875
    vertex 37.62116619515523 64.84931299314916 18.029674666836073
  endloop
endfacet
facet normal -1.5761211780152e-12 1.0 -2.0764110351815097e-25
  outer loop
    vertex 37.62116619515523 64.84931299314916 18.029674666836073
    vertex 39.345949642546515 64.84931299315187 21.818300678134875
    vertex 37.82149467202666 64.84931299314947 17.272572541524596
  endloop
endfacet
facet normal -1.5761211780152e-12 1.0 -2.0764110351815097e-25
  outer loop
    vertex 30.345949642548117 64.84931299313769 9.590300678133739
    vertex 33.01222860133635 64.8493129931419 14.515965583203375
    vertex 39.34594964254813 64.84931299315187 9.590300678134923
  endloop
endfacet
facet normal -1.5761211780152e-12 1.0 -2.0764110351815097e-25
  outer loop
    vertex 33.01222860133635 64.8493129931419 14.515965583203375
    vertex 30.345949642548117 64.84931299313769 9.590300678133739
    vertex 32.46018798860852 64.84931299314101 15.071471018546596
  endloop
endfacet
facet normal -1.5761211780152e-12 1.0 -2.0764110351815097e-25
  outer loop
    vertex 32.46018798860852 64.84931299314101 15.071471018546596
    vertex 30.345949642548117 64.84931299313769 9.590300678133739
    vertex 32.07073308993908 64.8493129931404 15.750926689432585
  endloop
endfacet
facet normal -1.5761211780152e-12 1.0 -2.0764110351815097e-25
  outer loop
    vertex 32.07073308993908 64.8493129931404 15.750926689432585
    vertex 30.345949642548117 64.84931299313769 9.590300678133739
    vertex 31.870404613067663 64.84931299314009 16.508028814744062
  endloop
endfacet
facet normal -1.5761211780152e-12 1.0 -2.0764110351815097e-25
  outer loop
    vertex 39.34594964254813 64.84931299315187 9.590300678134923
    vertex 33.01222860133635 64.8493129931419 14.515965583203375
    vertex 33.6892342726554 64.84931299314295 14.122267160805434
  endloop
endfacet
facet normal -1.5761211780152e-12 1.0 -2.0764110351815097e-25
  outer loop
    vertex 39.34594964254813 64.84931299315187 9.590300678134923
    vertex 33.6892342726554 64.84931299314295 14.122267160805434
    vertex 34.44506818487002 64.84931299314414 13.917205648221785
  endloop
endfacet
facet normal -1.5761211780152e-12 1.0 -2.0764110351815097e-25
  outer loop
    vertex 39.34594964254813 64.84931299315187 9.590300678134923
    vertex 34.44506818487002 64.84931299314414 13.917205648221785
    vertex 35.22822150593741 64.84931299314538 13.91475564865483
  endloop
endfacet
facet normal -1.5761211780152e-12 1.0 -2.0764110351815097e-25
  outer loop
    vertex 39.34594964254813 64.84931299315187 9.590300678134923
    vertex 35.22822150593741 64.84931299314538 13.91475564865483
    vertex 35.9853236312489 64.84931299314657 14.115084125526247
  endloop
endfacet
facet normal -1.5761211780152e-12 1.0 -2.0764110351815097e-25
  outer loop
    vertex 39.34594964254813 64.84931299315187 9.590300678134923
    vertex 35.9853236312489 64.84931299314657 14.115084125526247
    vertex 36.66477930213488 64.84931299314763 14.5045390241957
  endloop
endfacet
facet normal -1.5761211780152e-12 1.0 -2.0764110351815097e-25
  outer loop
    vertex 39.34594964254813 64.84931299315187 9.590300678134923
    vertex 36.66477930213488 64.84931299314763 14.5045390241957
    vertex 37.2202847374781 64.84931299314852 15.056579636923525
  endloop
endfacet
facet normal -1.5761211780152e-12 1.0 -2.0764110351815097e-25
  outer loop
    vertex 39.34594964254813 64.84931299315187 9.590300678134923
    vertex 37.2202847374781 64.84931299314852 15.056579636923525
    vertex 37.61398315987604 64.84931299314914 15.733585308242567
  endloop
endfacet
facet normal -1.5761211780152e-12 1.0 -2.0764110351815097e-25
  outer loop
    vertex 39.34594964254813 64.84931299315187 9.590300678134923
    vertex 37.61398315987604 64.84931299314914 15.733585308242567
    vertex 37.8190446724597 64.84931299314945 16.4894192204572
  endloop
endfacet
facet normal -1.5761211780152e-12 1.0 -2.0764110351815097e-25
  outer loop
    vertex 39.34594964254813 64.84931299315187 9.590300678134923
    vertex 37.8190446724597 64.84931299314945 16.4894192204572
    vertex 37.82149467202666 64.84931299314947 17.272572541524596
  endloop
endfacet
facet normal -1.5761211780152e-12 1.0 -2.0764110351815097e-25
  outer loop
    vertex 39.34594964254813 64.84931299315187 9.590300678134923
    vertex 37.82149467202666 64.84931299314947 17.272572541524596
    vertex 39.345949642546515 64.84931299315187 21.818300678134875
  endloop
endfacet
facet normal -1.5761211780152e-12 1.0 -2.0764110351815097e-25
  outer loop
    vertex 33.027119982961004 63.849312993141915 19.276062332072957
    vertex 33.367456302006055 63.84931299314244 17.143396395148546
    vertex 33.35232874912499 63.84931299314242 16.752110133131822
  endloop
endfacet
facet normal -1.5761211780152e-12 1.0 -2.0764110351815097e-25
  outer loop
    vertex 33.367456302006055 63.84931299314244 17.143396395148546
    vertex 33.027119982961004 63.849312993141915 19.276062332072957
    vertex 33.706575653847 63.84931299314298 19.665517230742413
  endloop
endfacet
facet normal -1.5761211780152e-12 1.0 -2.0764110351815097e-25
  outer loop
    vertex 33.367456302006055 63.84931299314244 17.143396395148546
    vertex 33.706575653847 63.84931299314298 19.665517230742413
    vertex 33.48334073271931 63.849312993142625 17.51743460231121
  endloop
endfacet
facet normal -1.5761211780152e-12 1.0 -2.0764110351815097e-25
  outer loop
    vertex 33.48334073271931 63.849312993142625 17.51743460231121
    vertex 33.706575653847 63.84931299314298 19.665517230742413
    vertex 33.692084708819756 63.84931299314296 17.84873466892902
  endloop
endfacet
facet normal -1.5761211780152e-12 1.0 -2.0764110351815097e-25
  outer loop
    vertex 33.692084708819756 63.84931299314296 17.84873466892902
    vertex 33.706575653847 63.84931299314298 19.665517230742413
    vertex 33.97946267330187 63.849312993143414 18.114719042961237
  endloop
endfacet
facet normal -1.5761211780152e-12 1.0 -2.0764110351815097e-25
  outer loop
    vertex 33.97946267330187 63.849312993143414 18.114719042961237
    vertex 33.706575653847 63.84931299314298 19.665517230742413
    vertex 34.46367777915846 63.84931299314417 19.865845707613826
  endloop
endfacet
facet normal -1.5761211780152e-12 1.0 -2.0764110351815097e-25
  outer loop
    vertex 33.97946267330187 63.849312993143414 18.114719042961237
    vertex 34.46367777915846 63.84931299314417 19.865845707613826
    vertex 34.32589029280074 63.849312993143954 18.297261328877518
  endloop
endfacet
facet normal -1.5761211780152e-12 1.0 -2.0764110351815097e-25
  outer loop
    vertex 34.32589029280074 63.849312993143954 18.297261328877518
    vertex 34.46367777915846 63.84931299314417 19.865845707613826
    vertex 34.70775909754623 63.849312993144565 18.383921571558062
  endloop
endfacet
facet normal -1.5761211780152e-12 1.0 -2.0764110351815097e-25
  outer loop
    vertex 34.70775909754623 63.849312993144565 18.383921571558062
    vertex 34.46367777915846 63.84931299314417 19.865845707613826
    vertex 35.246831100225855 63.84931299314541 19.863395708046873
  endloop
endfacet
facet normal -1.5761211780152e-12 1.0 -2.0764110351815097e-25
  outer loop
    vertex 34.70775909754623 63.849312993144565 18.383921571558062
    vertex 35.246831100225855 63.84931299314541 19.863395708046873
    vertex 35.09904535956296 63.84931299314517 18.36879401867701
  endloop
endfacet
facet normal -1.5761211780152e-12 1.0 -2.0764110351815097e-25
  outer loop
    vertex 35.09904535956296 63.84931299314517 18.36879401867701
    vertex 35.246831100225855 63.84931299314541 19.863395708046873
    vertex 35.47308356672561 63.84931299314576 18.252909587963742
  endloop
endfacet
facet normal -1.5761211780152e-12 1.0 -2.0764110351815097e-25
  outer loop
    vertex 35.47308356672561 63.84931299314576 18.252909587963742
    vertex 35.246831100225855 63.84931299314541 19.863395708046873
    vertex 36.002665012440495 63.84931299314659 19.658334195463222
  endloop
endfacet
facet normal -1.5761211780152e-12 1.0 -2.0764110351815097e-25
  outer loop
    vertex 35.47308356672561 63.84931299314576 18.252909587963742
    vertex 36.002665012440495 63.84931299314659 19.658334195463222
    vertex 35.804383633343434 63.84931299314629 18.0441656118633
  endloop
endfacet
facet normal -1.5761211780152e-12 1.0 -2.0764110351815097e-25
  outer loop
    vertex 35.804383633343434 63.84931299314629 18.0441656118633
    vertex 36.002665012440495 63.84931299314659 19.658334195463222
    vertex 36.07036800737565 63.849312993146704 17.756787647381184
  endloop
endfacet
facet normal -1.5761211780152e-12 1.0 -2.0764110351815097e-25
  outer loop
    vertex 36.07036800737565 63.849312993146704 17.756787647381184
    vertex 36.002665012440495 63.84931299314659 19.658334195463222
    vertex 36.67967068375955 63.84931299314766 19.264635773065283
  endloop
endfacet
facet normal -1.5761211780152e-12 1.0 -2.0764110351815097e-25
  outer loop
    vertex 36.07036800737565 63.849312993146704 17.756787647381184
    vertex 36.67967068375955 63.84931299314766 19.264635773065283
    vertex 36.252910293291926 63.84931299314699 17.41036002788232
  endloop
endfacet
facet normal -1.5761211780152e-12 1.0 -2.0764110351815097e-25
  outer loop
    vertex 36.252910293291926 63.84931299314699 17.41036002788232
    vertex 36.67967068375955 63.84931299314766 19.264635773065283
    vertex 36.33957053597248 63.84931299314714 17.02849122313684
  endloop
endfacet
facet normal -1.5761211780152e-12 1.0 -2.0764110351815097e-25
  outer loop
    vertex 36.33957053597248 63.84931299314714 17.02849122313684
    vertex 36.67967068375955 63.84931299314766 19.264635773065283
    vertex 36.664779302136466 63.84931299314764 14.5045390241957
  endloop
endfacet
facet normal -1.5761211780152e-12 1.0 -2.0764110351815097e-25
  outer loop
    vertex 36.664779302136466 63.84931299314764 14.5045390241957
    vertex 36.67967068375955 63.84931299314766 19.264635773065283
    vertex 37.22028473747968 63.84931299314852 15.056579636923525
  endloop
endfacet
facet normal -1.5761211780152e-12 1.0 -2.0764110351815097e-25
  outer loop
    vertex 37.22028473747968 63.84931299314852 15.056579636923525
    vertex 36.67967068375955 63.84931299314766 19.264635773065283
    vertex 37.231711296487354 63.84931299314854 18.709130337722065
  endloop
endfacet
facet normal -1.5761211780152e-12 1.0 -2.0764110351815097e-25
  outer loop
    vertex 37.22028473747968 63.84931299314852 15.056579636923525
    vertex 37.231711296487354 63.84931299314854 18.709130337722065
    vertex 37.61398315987762 63.84931299314914 15.733585308242567
  endloop
endfacet
facet normal -1.5761211780152e-12 1.0 -2.0764110351815097e-25
  outer loop
    vertex 37.61398315987762 63.84931299314914 15.733585308242567
    vertex 37.231711296487354 63.84931299314854 18.709130337722065
    vertex 37.62116619515681 63.849312993149155 18.029674666836073
  endloop
endfacet
facet normal -1.5761211780152e-12 1.0 -2.0764110351815097e-25
  outer loop
    vertex 37.61398315987762 63.84931299314914 15.733585308242567
    vertex 37.62116619515681 63.849312993149155 18.029674666836073
    vertex 37.819044672461274 63.84931299314946 16.4894192204572
  endloop
endfacet
facet normal -1.5761211780152e-12 1.0 -2.0764110351815097e-25
  outer loop
    vertex 37.819044672461274 63.84931299314946 16.4894192204572
    vertex 37.62116619515681 63.849312993149155 18.029674666836073
    vertex 37.82149467202824 63.84931299314947 17.272572541524596
  endloop
endfacet
facet normal -1.5761211780152e-12 1.0 -2.0764110351815097e-25
  outer loop
    vertex 31.87285461263618 63.84931299314009 17.291182135811457
    vertex 32.07073308994066 63.8493129931404 15.750926689432585
    vertex 31.870404613069237 63.84931299314009 16.508028814744062
  endloop
endfacet
facet normal -1.5761211780152e-12 1.0 -2.0764110351815097e-25
  outer loop
    vertex 32.07073308994066 63.8493129931404 15.750926689432585
    vertex 31.87285461263618 63.84931299314009 17.291182135811457
    vertex 32.07791612521983 63.849312993140416 18.04701604802609
  endloop
endfacet
facet normal -1.5761211780152e-12 1.0 -2.0764110351815097e-25
  outer loop
    vertex 32.07073308994066 63.8493129931404 15.750926689432585
    vertex 32.07791612521983 63.849312993140416 18.04701604802609
    vertex 32.460187988610095 63.84931299314101 15.071471018546596
  endloop
endfacet
facet normal -1.5761211780152e-12 1.0 -2.0764110351815097e-25
  outer loop
    vertex 32.460187988610095 63.84931299314101 15.071471018546596
    vertex 32.07791612521983 63.849312993140416 18.04701604802609
    vertex 32.47161454761777 63.849312993141034 18.72402171934513
  endloop
endfacet
facet normal -1.5761211780152e-12 1.0 -2.0764110351815097e-25
  outer loop
    vertex 32.460187988610095 63.84931299314101 15.071471018546596
    vertex 32.47161454761777 63.849312993141034 18.72402171934513
    vertex 33.01222860133793 63.84931299314189 14.515965583203375
  endloop
endfacet
facet normal -1.5761211780152e-12 1.0 -2.0764110351815097e-25
  outer loop
    vertex 33.01222860133793 63.84931299314189 14.515965583203375
    vertex 32.47161454761777 63.849312993141034 18.72402171934513
    vertex 33.027119982961004 63.849312993141915 19.276062332072957
  endloop
endfacet
facet normal -1.5761211780152e-12 1.0 -2.0764110351815097e-25
  outer loop
    vertex 33.01222860133793 63.84931299314189 14.515965583203375
    vertex 33.027119982961004 63.849312993141915 19.276062332072957
    vertex 33.689234272656975 63.84931299314295 14.122267160805434
  endloop
endfacet
facet normal -1.5761211780152e-12 1.0 -2.0764110351815097e-25
  outer loop
    vertex 33.689234272656975 63.84931299314295 14.122267160805434
    vertex 33.027119982961004 63.849312993141915 19.276062332072957
    vertex 33.35232874912499 63.84931299314242 16.752110133131822
  endloop
endfacet
facet normal -1.5761211780152e-12 1.0 -2.0764110351815097e-25
  outer loop
    vertex 33.689234272656975 63.84931299314295 14.122267160805434
    vertex 33.35232874912499 63.84931299314242 16.752110133131822
    vertex 33.438988991805545 63.849312993142554 16.370241328386335
  endloop
endfacet
facet normal -1.5761211780152e-12 1.0 -2.0764110351815097e-25
  outer loop
    vertex 33.689234272656975 63.84931299314295 14.122267160805434
    vertex 33.438988991805545 63.849312993142554 16.370241328386335
    vertex 33.62153127772182 63.849312993142846 16.023813708887474
  endloop
endfacet
facet normal -1.5761211780152e-12 1.0 -2.0764110351815097e-25
  outer loop
    vertex 33.689234272656975 63.84931299314295 14.122267160805434
    vertex 33.62153127772182 63.849312993142846 16.023813708887474
    vertex 33.887515651754036 63.849312993143265 15.736435744405359
  endloop
endfacet
facet normal -1.5761211780152e-12 1.0 -2.0764110351815097e-25
  outer loop
    vertex 33.689234272656975 63.84931299314295 14.122267160805434
    vertex 33.887515651754036 63.849312993143265 15.736435744405359
    vertex 34.445068184871594 63.849312993144146 13.917205648221785
  endloop
endfacet
facet normal -1.5761211780152e-12 1.0 -2.0764110351815097e-25
  outer loop
    vertex 34.445068184871594 63.849312993144146 13.917205648221785
    vertex 33.887515651754036 63.849312993143265 15.736435744405359
    vertex 34.21881571837185 63.84931299314378 15.527691768304912
  endloop
endfacet
facet normal -1.5761211780152e-12 1.0 -2.0764110351815097e-25
  outer loop
    vertex 34.445068184871594 63.849312993144146 13.917205648221785
    vertex 34.21881571837185 63.84931299314378 15.527691768304912
    vertex 34.59285392553452 63.84931299314437 15.411807337591647
  endloop
endfacet
facet normal -1.5761211780152e-12 1.0 -2.0764110351815097e-25
  outer loop
    vertex 34.445068184871594 63.849312993144146 13.917205648221785
    vertex 34.59285392553452 63.84931299314437 15.411807337591647
    vertex 35.22822150593899 63.849312993145375 13.91475564865483
  endloop
endfacet
facet normal -1.5761211780152e-12 1.0 -2.0764110351815097e-25
  outer loop
    vertex 35.22822150593899 63.849312993145375 13.91475564865483
    vertex 34.59285392553452 63.84931299314437 15.411807337591647
    vertex 34.98414018755124 63.84931299314499 15.396679784710596
  endloop
endfacet
facet normal -1.5761211780152e-12 1.0 -2.0764110351815097e-25
  outer loop
    vertex 35.22822150593899 63.849312993145375 13.91475564865483
    vertex 34.98414018755124 63.84931299314499 15.396679784710596
    vertex 35.36600899229672 63.84931299314559 15.483340027391137
  endloop
endfacet
facet normal -1.5761211780152e-12 1.0 -2.0764110351815097e-25
  outer loop
    vertex 35.22822150593899 63.849312993145375 13.91475564865483
    vertex 35.36600899229672 63.84931299314559 15.483340027391137
    vertex 35.98532363125047 63.84931299314657 14.115084125526247
  endloop
endfacet
facet normal -1.5761211780152e-12 1.0 -2.0764110351815097e-25
  outer loop
    vertex 35.98532363125047 63.84931299314657 14.115084125526247
    vertex 35.36600899229672 63.84931299314559 15.483340027391137
    vertex 35.71243661179558 63.84931299314614 15.665882313307423
  endloop
endfacet
facet normal -1.5761211780152e-12 1.0 -2.0764110351815097e-25
  outer loop
    vertex 35.98532363125047 63.84931299314657 14.115084125526247
    vertex 35.71243661179558 63.84931299314614 15.665882313307423
    vertex 35.99981457627769 63.84931299314659 15.931866687339635
  endloop
endfacet
facet normal -1.5761211780152e-12 1.0 -2.0764110351815097e-25
  outer loop
    vertex 35.98532363125047 63.84931299314657 14.115084125526247
    vertex 35.99981457627769 63.84931299314659 15.931866687339635
    vertex 36.664779302136466 63.84931299314764 14.5045390241957
  endloop
endfacet
facet normal -1.5761211780152e-12 1.0 -2.0764110351815097e-25
  outer loop
    vertex 36.664779302136466 63.84931299314764 14.5045390241957
    vertex 35.99981457627769 63.84931299314659 15.931866687339635
    vertex 36.20855855237814 63.849312993146924 16.263166753957453
  endloop
endfacet
facet normal -1.5761211780152e-12 1.0 -2.0764110351815097e-25
  outer loop
    vertex 36.664779302136466 63.84931299314764 14.5045390241957
    vertex 36.20855855237814 63.849312993146924 16.263166753957453
    vertex 36.324442983091416 63.8493129931471 16.63720496112011
  endloop
endfacet
facet normal -1.5761211780152e-12 1.0 -2.0764110351815097e-25
  outer loop
    vertex 36.664779302136466 63.84931299314764 14.5045390241957
    vertex 36.324442983091416 63.8493129931471 16.63720496112011
    vertex 36.33957053597248 63.84931299314714 17.02849122313684
  endloop
endfacet
facet normal 1.0 1.5761211780152e-12 1.3174183965958264e-13
  outer loop
    vertex 39.34594964255625 59.695312993151866 9.590300678134923
    vertex 39.34594964255102 62.84931299315188 11.590300678134923
    vertex 39.345949642555986 59.695312993151866 11.590300678134923
  endloop
endfacet
facet normal 1.0 1.5761211780152e-12 1.3174183965958264e-13
  outer loop
    vertex 39.34594964255102 62.84931299315188 11.590300678134923
    vertex 39.345949642546515 64.84931299315187 21.818300678134875
    vertex 39.34594964254966 62.84931299315188 21.818300678134875
  endloop
endfacet
facet normal 1.0 1.5761211780152e-12 1.3174183965958264e-13
  outer loop
    vertex 39.345949642546515 64.84931299315187 21.818300678134875
    vertex 39.34594964255102 62.84931299315188 11.590300678134923
    vertex 39.34594964254813 64.84931299315187 9.590300678134923
  endloop
endfacet
facet normal 1.0 1.5761211780152e-12 1.3174183965958264e-13
  outer loop
    vertex 39.34594964254813 64.84931299315187 9.590300678134923
    vertex 39.34594964255102 62.84931299315188 11.590300678134923
    vertex 39.34594964255625 59.695312993151866 9.590300678134923
  endloop
endfacet
facet normal 1.5761211780152e-12 -1.0 2.0764110351815097e-25
  outer loop
    vertex 30.34594964255101 62.84931299313769 11.590300678133737
    vertex 33.6215312777234 62.8493129931428 16.023813708887474
    vertex 30.345949642549662 62.84931299313769 21.818300678133692
  endloop
endfacet
facet normal 1.5761211780152e-12 -1.0 2.0764110351815097e-25
  outer loop
    vertex 33.6215312777234 62.8493129931428 16.023813708887474
    vertex 30.34594964255101 62.84931299313769 11.590300678133737
    vertex 33.88751565175561 62.84931299314322 15.736435744405359
  endloop
endfacet
facet normal 1.5761211780152e-12 -1.0 2.0764110351815097e-25
  outer loop
    vertex 33.88751565175561 62.84931299314322 15.736435744405359
    vertex 30.34594964255101 62.84931299313769 11.590300678133737
    vertex 39.34594964255102 62.84931299315188 11.590300678134923
  endloop
endfacet
facet normal 1.5761211780152e-12 -1.0 2.0764110351815097e-25
  outer loop
    vertex 30.345949642549662 62.84931299313769 21.818300678133692
    vertex 33.6215312777234 62.8493129931428 16.023813708887474
    vertex 33.43898899180713 62.84931299314251 16.370241328386335
  endloop
endfacet
facet normal 1.5761211780152e-12 -1.0 2.0764110351815097e-25
  outer loop
    vertex 30.345949642549662 62.84931299313769 21.818300678133692
    vertex 33.43898899180713 62.84931299314251 16.370241328386335
    vertex 33.35232874912657 62.84931299314238 16.752110133131822
  endloop
endfacet
facet normal 1.5761211780152e-12 -1.0 2.0764110351815097e-25
  outer loop
    vertex 33.88751565175561 62.84931299314322 15.736435744405359
    vertex 39.34594964255102 62.84931299315188 11.590300678134923
    vertex 34.218815718373435 62.84931299314374 15.527691768304912
  endloop
endfacet
facet normal 1.5761211780152e-12 -1.0 2.0764110351815097e-25
  outer loop
    vertex 34.218815718373435 62.84931299314374 15.527691768304912
    vertex 39.34594964255102 62.84931299315188 11.590300678134923
    vertex 34.59285392553609 62.84931299314433 15.411807337591647
  endloop
endfacet
facet normal 1.5761211780152e-12 -1.0 2.0764110351815097e-25
  outer loop
    vertex 34.59285392553609 62.84931299314433 15.411807337591647
    vertex 39.34594964255102 62.84931299315188 11.590300678134923
    vertex 34.845949642550494 62.84931299314478 15.402022381627768
  endloop
endfacet
facet normal 1.5761211780152e-12 -1.0 2.0764110351815097e-25
  outer loop
    vertex 34.845949642550494 62.84931299314478 15.402022381627768
    vertex 39.34594964255102 62.84931299315188 11.590300678134923
    vertex 34.98414018755282 62.84931299314495 15.396679784710596
  endloop
endfacet
facet normal 1.5761211780152e-12 -1.0 2.0764110351815097e-25
  outer loop
    vertex 34.98414018755282 62.84931299314495 15.396679784710596
    vertex 39.34594964255102 62.84931299315188 11.590300678134923
    vertex 35.366008992298305 62.849312993145546 15.483340027391137
  endloop
endfacet
facet normal 1.5761211780152e-12 -1.0 2.0764110351815097e-25
  outer loop
    vertex 35.366008992298305 62.849312993145546 15.483340027391137
    vertex 39.34594964255102 62.84931299315188 11.590300678134923
    vertex 35.71243661179716 62.8493129931461 15.665882313307423
  endloop
endfacet
facet normal 1.5761211780152e-12 -1.0 2.0764110351815097e-25
  outer loop
    vertex 35.71243661179716 62.8493129931461 15.665882313307423
    vertex 39.34594964255102 62.84931299315188 11.590300678134923
    vertex 35.99981457627927 62.84931299314655 15.931866687339635
  endloop
endfacet
facet normal 1.5761211780152e-12 -1.0 2.0764110351815097e-25
  outer loop
    vertex 35.99981457627927 62.84931299314655 15.931866687339635
    vertex 39.34594964255102 62.84931299315188 11.590300678134923
    vertex 36.20855855237971 62.849312993146874 16.263166753957453
  endloop
endfacet
facet normal 1.5761211780152e-12 -1.0 2.0764110351815097e-25
  outer loop
    vertex 36.20855855237971 62.849312993146874 16.263166753957453
    vertex 39.34594964255102 62.84931299315188 11.590300678134923
    vertex 36.32444298309299 62.84931299314706 16.63720496112011
  endloop
endfacet
facet normal 1.5761211780152e-12 -1.0 2.0764110351815097e-25
  outer loop
    vertex 36.32444298309299 62.84931299314706 16.63720496112011
    vertex 39.34594964255102 62.84931299315188 11.590300678134923
    vertex 36.33957053597405 62.84931299314708 17.02849122313684
  endloop
endfacet
facet normal 1.5761211780152e-12 -1.0 2.0764110351815097e-25
  outer loop
    vertex 30.345949642549662 62.84931299313769 21.818300678133692
    vertex 33.979462673303445 62.84931299314337 18.114719042961237
    vertex 39.34594964254966 62.84931299315188 21.818300678134875
  endloop
endfacet
facet normal 1.5761211780152e-12 -1.0 2.0764110351815097e-25
  outer loop
    vertex 33.979462673303445 62.84931299314337 18.114719042961237
    vertex 30.345949642549662 62.84931299313769 21.818300678133692
    vertex 33.692084708821326 62.84931299314292 17.84873466892902
  endloop
endfacet
facet normal 1.5761211780152e-12 -1.0 2.0764110351815097e-25
  outer loop
    vertex 33.692084708821326 62.84931299314292 17.84873466892902
    vertex 30.345949642549662 62.84931299313769 21.818300678133692
    vertex 33.48334073272088 62.84931299314258 17.51743460231121
  endloop
endfacet
facet normal 1.5761211780152e-12 -1.0 2.0764110351815097e-25
  outer loop
    vertex 33.48334073272088 62.84931299314258 17.51743460231121
    vertex 30.345949642549662 62.84931299313769 21.818300678133692
    vertex 33.36745630200764 62.8493129931424 17.143396395148546
  endloop
endfacet
facet normal 1.5761211780152e-12 -1.0 2.0764110351815097e-25
  outer loop
    vertex 33.36745630200764 62.8493129931424 17.143396395148546
    vertex 30.345949642549662 62.84931299313769 21.818300678133692
    vertex 33.35232874912657 62.84931299314238 16.752110133131822
  endloop
endfacet
facet normal 1.5761211780152e-12 -1.0 2.0764110351815097e-25
  outer loop
    vertex 39.34594964254966 62.84931299315188 21.818300678134875
    vertex 33.979462673303445 62.84931299314337 18.114719042961237
    vertex 34.32589029280233 62.84931299314391 18.297261328877518
  endloop
endfacet
facet normal 1.5761211780152e-12 -1.0 2.0764110351815097e-25
  outer loop
    vertex 39.34594964254966 62.84931299315188 21.818300678134875
    vertex 34.32589029280233 62.84931299314391 18.297261328877518
    vertex 34.70775909754781 62.84931299314451 18.383921571558062
  endloop
endfacet
facet normal 1.5761211780152e-12 -1.0 2.0764110351815097e-25
  outer loop
    vertex 39.34594964254966 62.84931299315188 21.818300678134875
    vertex 34.70775909754781 62.84931299314451 18.383921571558062
    vertex 34.8459496425501 62.84931299314478 18.378578974640888
  endloop
endfacet
facet normal 1.5761211780152e-12 -1.0 2.0764110351815097e-25
  outer loop
    vertex 39.34594964254966 62.84931299315188 21.818300678134875
    vertex 34.8459496425501 62.84931299314478 18.378578974640888
    vertex 35.09904535956453 62.849312993145126 18.36879401867701
  endloop
endfacet
facet normal 1.5761211780152e-12 -1.0 2.0764110351815097e-25
  outer loop
    vertex 39.34594964254966 62.84931299315188 21.818300678134875
    vertex 35.09904535956453 62.849312993145126 18.36879401867701
    vertex 35.4730835667272 62.849312993145716 18.252909587963742
  endloop
endfacet
facet normal 1.5761211780152e-12 -1.0 2.0764110351815097e-25
  outer loop
    vertex 39.34594964254966 62.84931299315188 21.818300678134875
    vertex 35.4730835667272 62.849312993145716 18.252909587963742
    vertex 35.80438363334501 62.84931299314625 18.0441656118633
  endloop
endfacet
facet normal 1.5761211780152e-12 -1.0 2.0764110351815097e-25
  outer loop
    vertex 39.34594964254966 62.84931299315188 21.818300678134875
    vertex 35.80438363334501 62.84931299314625 18.0441656118633
    vertex 36.070368007377226 62.84931299314666 17.756787647381184
  endloop
endfacet
facet normal 1.5761211780152e-12 -1.0 2.0764110351815097e-25
  outer loop
    vertex 39.34594964254966 62.84931299315188 21.818300678134875
    vertex 36.070368007377226 62.84931299314666 17.756787647381184
    vertex 36.2529102932935 62.849312993146945 17.41036002788232
  endloop
endfacet
facet normal 1.5761211780152e-12 -1.0 2.0764110351815097e-25
  outer loop
    vertex 39.34594964254966 62.84931299315188 21.818300678134875
    vertex 36.2529102932935 62.849312993146945 17.41036002788232
    vertex 36.33957053597405 62.84931299314708 17.02849122313684
  endloop
endfacet
facet normal 1.5761211780152e-12 -1.0 2.0764110351815097e-25
  outer loop
    vertex 39.34594964254966 62.84931299315188 21.818300678134875
    vertex 36.33957053597405 62.84931299314708 17.02849122313684
    vertex 39.34594964255102 62.84931299315188 11.590300678134923
  endloop
endfacet
facet normal -1.3174183965958264e-13 -0.0 1.0
  outer loop
    vertex 39.34594964255102 62.84931299315188 11.590300678134923
    vertex 30.34594964255598 59.69531299313767 11.590300678133737
    vertex 39.345949642555986 59.695312993151866 11.590300678134923
  endloop
endfacet
facet normal -1.3174183965958264e-13 -0.0 1.0
  outer loop
    vertex 30.34594964255598 59.69531299313767 11.590300678133737
    vertex 39.34594964255102 62.84931299315188 11.590300678134923
    vertex 30.34594964255101 62.84931299313769 11.590300678133737
  endloop
endfacet
facet normal 1.5761211780152e-12 -1.0 2.0764110351815097e-25
  outer loop
    vertex 39.34594964255625 59.695312993151866 9.590300678134923
    vertex 30.34594964255598 59.69531299313767 11.590300678133737
    vertex 30.345949642556242 59.69531299313767 9.590300678133739
  endloop
endfacet
facet normal 1.5761211780152e-12 -1.0 2.0764110351815097e-25
  outer loop
    vertex 30.34594964255598 59.69531299313767 11.590300678133737
    vertex 39.34594964255625 59.695312993151866 9.590300678134923
    vertex 39.345949642555986 59.695312993151866 11.590300678134923
  endloop
endfacet
facet normal 0.6792618133015456 1.0705989293614203e-12 -0.7338960341835187
  outer loop
    vertex 33.692084708819756 63.84931299314296 17.84873466892902
    vertex 33.979462673303445 62.84931299314337 18.114719042961237
    vertex 33.692084708821326 62.84931299314292 17.84873466892902
  endloop
endfacet
facet normal 0.6792618133015456 1.0705989293614203e-12 -0.7338960341835187
  outer loop
    vertex 33.979462673303445 62.84931299314337 18.114719042961237
    vertex 33.692084708819756 63.84931299314296 17.84873466892902
    vertex 33.97946267330187 63.849312993143414 18.114719042961237
  endloop
endfacet
facet normal 0.038632228070484095 6.059185915833227e-14 0.999253496843674
  outer loop
    vertex 34.98414018755124 63.84931299314499 15.396679784710596
    vertex 34.845949642550494 62.84931299314478 15.402022381627768
    vertex 34.98414018755282 62.84931299314495 15.396679784710596
  endloop
endfacet
facet normal 0.038632228070484095 6.059185915833227e-14 0.999253496843674
  outer loop
    vertex 34.845949642550494 62.84931299314478 15.402022381627768
    vertex 34.59285392553452 63.84931299314437 15.411807337591647
    vertex 34.59285392553609 62.84931299314433 15.411807337591647
  endloop
endfacet
facet normal 0.038632228070484095 6.059185915833227e-14 0.999253496843674
  outer loop
    vertex 34.59285392553452 63.84931299314437 15.411807337591647
    vertex 34.845949642550494 62.84931299314478 15.402022381627768
    vertex 34.98414018755124 63.84931299314499 15.396679784710596
  endloop
endfacet
facet normal 0.9992534968436738 1.574944598581051e-12 -0.03863222807048747
  outer loop
    vertex 33.35232874912657 62.84931299314238 16.752110133131822
    vertex 33.367456302006055 63.84931299314244 17.143396395148546
    vertex 33.36745630200764 62.8493129931424 17.143396395148546
  endloop
endfacet
facet normal 0.9992534968436738 1.574944598581051e-12 -0.03863222807048747
  outer loop
    vertex 33.367456302006055 63.84931299314244 17.143396395148546
    vertex 33.35232874912657 62.84931299314238 16.752110133131822
    vertex 33.35232874912499 63.84931299314242 16.752110133131822
  endloop
endfacet
facet normal 0.2959417026888084 4.664399850659071e-13 0.9552060032315799
  outer loop
    vertex 34.59285392553452 63.84931299314437 15.411807337591647
    vertex 34.218815718373435 62.84931299314374 15.527691768304912
    vertex 34.59285392553609 62.84931299314433 15.411807337591647
  endloop
endfacet
facet normal 0.2959417026888084 4.664399850659071e-13 0.9552060032315799
  outer loop
    vertex 34.218815718373435 62.84931299314374 15.527691768304912
    vertex 34.59285392553452 63.84931299314437 15.411807337591647
    vertex 34.21881571837185 63.84931299314378 15.527691768304912
  endloop
endfacet
facet normal -0.22130996904806427 -3.4881132912234e-13 0.9752035159903522
  outer loop
    vertex 35.36600899229672 63.84931299314559 15.483340027391137
    vertex 34.98414018755282 62.84931299314495 15.396679784710596
    vertex 35.366008992298305 62.849312993145546 15.483340027391137
  endloop
endfacet
facet normal -0.22130996904806427 -3.4881132912234e-13 0.9752035159903522
  outer loop
    vertex 34.98414018755282 62.84931299314495 15.396679784710596
    vertex 35.36600899229672 63.84931299314559 15.483340027391137
    vertex 34.98414018755124 63.84931299314499 15.396679784710596
  endloop
endfacet
facet normal 0.9752035159903515 1.5370389144273236e-12 0.22130996904806693
  outer loop
    vertex 33.43898899180713 62.84931299314251 16.370241328386335
    vertex 33.35232874912499 63.84931299314242 16.752110133131822
    vertex 33.35232874912657 62.84931299314238 16.752110133131822
  endloop
endfacet
facet normal 0.9752035159903515 1.5370389144273236e-12 0.22130996904806693
  outer loop
    vertex 33.35232874912499 63.84931299314242 16.752110133131822
    vertex 33.43898899180713 62.84931299314251 16.370241328386335
    vertex 33.438988991805545 63.849312993142554 16.370241328386335
  endloop
endfacet
facet normal 0.7338960341835171 1.1567090819381495e-12 0.6792618133015473
  outer loop
    vertex 33.88751565175561 62.84931299314322 15.736435744405359
    vertex 33.62153127772182 63.849312993142846 16.023813708887474
    vertex 33.6215312777234 62.8493129931428 16.023813708887474
  endloop
endfacet
facet normal 0.7338960341835171 1.1567090819381495e-12 0.6792618133015473
  outer loop
    vertex 33.62153127772182 63.849312993142846 16.023813708887474
    vertex 33.88751565175561 62.84931299314322 15.736435744405359
    vertex 33.887515651754036 63.849312993143265 15.736435744405359
  endloop
endfacet
facet normal 0.5330832393356719 8.402037831620737e-13 0.846062799051812
  outer loop
    vertex 34.21881571837185 63.84931299314378 15.527691768304912
    vertex 33.88751565175561 62.84931299314322 15.736435744405359
    vertex 34.218815718373435 62.84931299314374 15.527691768304912
  endloop
endfacet
facet normal 0.5330832393356719 8.402037831620737e-13 0.846062799051812
  outer loop
    vertex 33.88751565175561 62.84931299314322 15.736435744405359
    vertex 34.21881571837185 63.84931299314378 15.527691768304912
    vertex 33.887515651754036 63.849312993143265 15.736435744405359
  endloop
endfacet
facet normal 0.9552060032315809 1.5055204110604887e-12 -0.2959417026888051
  outer loop
    vertex 33.36745630200764 62.8493129931424 17.143396395148546
    vertex 33.48334073271931 63.849312993142625 17.51743460231121
    vertex 33.48334073272088 62.84931299314258 17.51743460231121
  endloop
endfacet
facet normal 0.9552060032315809 1.5055204110604887e-12 -0.2959417026888051
  outer loop
    vertex 33.48334073271931 63.849312993142625 17.51743460231121
    vertex 33.36745630200764 62.8493129931424 17.143396395148546
    vertex 33.367456302006055 63.84931299314244 17.143396395148546
  endloop
endfacet
facet normal 0.8846950271222972 1.3943865683322812e-12 0.46617025750800334
  outer loop
    vertex 33.6215312777234 62.8493129931428 16.023813708887474
    vertex 33.438988991805545 63.849312993142554 16.370241328386335
    vertex 33.43898899180713 62.84931299314251 16.370241328386335
  endloop
endfacet
facet normal 0.8846950271222972 1.3943865683322812e-12 0.46617025750800334
  outer loop
    vertex 33.438988991805545 63.849312993142554 16.370241328386335
    vertex 33.6215312777234 62.8493129931428 16.023813708887474
    vertex 33.62153127772182 63.849312993142846 16.023813708887474
  endloop
endfacet
facet normal 0.4661702575080062 7.347408154189842e-13 -0.8846950271222956
  outer loop
    vertex 33.97946267330187 63.849312993143414 18.114719042961237
    vertex 34.32589029280233 62.84931299314391 18.297261328877518
    vertex 33.979462673303445 62.84931299314337 18.114719042961237
  endloop
endfacet
facet normal 0.4661702575080062 7.347408154189842e-13 -0.8846950271222956
  outer loop
    vertex 34.32589029280233 62.84931299314391 18.297261328877518
    vertex 33.97946267330187 63.849312993143414 18.114719042961237
    vertex 34.32589029280074 63.849312993143954 18.297261328877518
  endloop
endfacet
facet normal 0.8460627990518136 1.333497495516271e-12 -0.5330832393356694
  outer loop
    vertex 33.48334073272088 62.84931299314258 17.51743460231121
    vertex 33.692084708819756 63.84931299314296 17.84873466892902
    vertex 33.692084708821326 62.84931299314292 17.84873466892902
  endloop
endfacet
facet normal 0.8460627990518136 1.333497495516271e-12 -0.5330832393356694
  outer loop
    vertex 33.692084708819756 63.84931299314296 17.84873466892902
    vertex 33.48334073272088 62.84931299314258 17.51743460231121
    vertex 33.48334073271931 63.849312993142625 17.51743460231121
  endloop
endfacet
facet normal -0.4972883118264378 -7.837866398488951e-13 0.8675853473410046
  outer loop
    vertex 36.66477930213488 64.84931299314763 14.5045390241957
    vertex 35.98532363125047 63.84931299314657 14.115084125526247
    vertex 36.664779302136466 63.84931299314764 14.5045390241957
  endloop
endfacet
facet normal -0.4972883118264378 -7.837866398488951e-13 0.8675853473410046
  outer loop
    vertex 35.98532363125047 63.84931299314657 14.115084125526247
    vertex 36.66477930213488 64.84931299314763 14.5045390241957
    vertex 35.9853236312489 64.84931299314657 14.115084125526247
  endloop
endfacet
facet normal -0.733896034183517 -1.1567090819381493e-12 -0.6792618133015473
  outer loop
    vertex 36.07036800737565 63.849312993146704 17.756787647381184
    vertex 35.80438363334501 62.84931299314625 18.0441656118633
    vertex 35.804383633343434 63.84931299314629 18.0441656118633
  endloop
endfacet
facet normal -0.733896034183517 -1.1567090819381493e-12 -0.6792618133015473
  outer loop
    vertex 35.80438363334501 62.84931299314625 18.0441656118633
    vertex 36.07036800737565 63.849312993146704 17.756787647381184
    vertex 36.070368007377226 62.84931299314666 17.756787647381184
  endloop
endfacet
facet normal -0.038632228070484095 -6.118836327719786e-14 -0.999253496843674
  outer loop
    vertex 34.70775909754623 63.849312993144565 18.383921571558062
    vertex 34.8459496425501 62.84931299314478 18.378578974640888
    vertex 34.70775909754781 62.84931299314451 18.383921571558062
  endloop
endfacet
facet normal -0.038632228070484095 -6.118836327719786e-14 -0.999253496843674
  outer loop
    vertex 34.8459496425501 62.84931299314478 18.378578974640888
    vertex 35.09904535956296 63.84931299314517 18.36879401867701
    vertex 35.09904535956453 62.849312993145126 18.36879401867701
  endloop
endfacet
facet normal -0.038632228070484095 -6.118836327719786e-14 -0.999253496843674
  outer loop
    vertex 35.09904535956296 63.84931299314517 18.36879401867701
    vertex 34.8459496425501 62.84931299314478 18.378578974640888
    vertex 34.70775909754623 63.849312993144565 18.383921571558062
  endloop
endfacet
facet normal -0.9552060032315799 -1.5055204110604873e-12 0.2959417026888084
  outer loop
    vertex 36.20855855237814 63.849312993146924 16.263166753957453
    vertex 36.32444298309299 62.84931299314706 16.63720496112011
    vertex 36.324442983091416 63.8493129931471 16.63720496112011
  endloop
endfacet
facet normal -0.9552060032315799 -1.5055204110604873e-12 0.2959417026888084
  outer loop
    vertex 36.32444298309299 62.84931299314706 16.63720496112011
    vertex 36.20855855237814 63.849312993146924 16.263166753957453
    vertex 36.20855855237971 62.849312993146874 16.263166753957453
  endloop
endfacet
facet normal -0.8460627990518153 -1.3334974955162736e-12 0.5330832393356667
  outer loop
    vertex 35.99981457627769 63.84931299314659 15.931866687339635
    vertex 36.20855855237971 62.849312993146874 16.263166753957453
    vertex 36.20855855237814 63.849312993146924 16.263166753957453
  endloop
endfacet
facet normal -0.8460627990518153 -1.3334974955162736e-12 0.5330832393356667
  outer loop
    vertex 36.20855855237971 62.849312993146874 16.263166753957453
    vertex 35.99981457627769 63.84931299314659 15.931866687339635
    vertex 35.99981457627927 62.84931299314655 15.931866687339635
  endloop
endfacet
facet normal -0.999253496843674 -1.5749445985810514e-12 0.038632228070483866
  outer loop
    vertex 36.324442983091416 63.8493129931471 16.63720496112011
    vertex 36.33957053597405 62.84931299314708 17.02849122313684
    vertex 36.33957053597248 63.84931299314714 17.02849122313684
  endloop
endfacet
facet normal -0.999253496843674 -1.5749445985810514e-12 0.038632228070483866
  outer loop
    vertex 36.33957053597405 62.84931299314708 17.02849122313684
    vertex 36.324442983091416 63.8493129931471 16.63720496112011
    vertex 36.32444298309299 62.84931299314706 16.63720496112011
  endloop
endfacet
facet normal -0.4661702575080046 -7.347408154189816e-13 0.8846950271222963
  outer loop
    vertex 35.71243661179558 63.84931299314614 15.665882313307423
    vertex 35.366008992298305 62.849312993145546 15.483340027391137
    vertex 35.71243661179716 62.8493129931461 15.665882313307423
  endloop
endfacet
facet normal -0.4661702575080046 -7.347408154189816e-13 0.8846950271222963
  outer loop
    vertex 35.366008992298305 62.849312993145546 15.483340027391137
    vertex 35.71243661179558 63.84931299314614 15.665882313307423
    vertex 35.36600899229672 63.84931299314559 15.483340027391137
  endloop
endfacet
facet normal 0.22130996904806352 3.488113291223388e-13 -0.9752035159903524
  outer loop
    vertex 34.32589029280074 63.849312993143954 18.297261328877518
    vertex 34.70775909754781 62.84931299314451 18.383921571558062
    vertex 34.32589029280233 62.84931299314391 18.297261328877518
  endloop
endfacet
facet normal 0.22130996904806352 3.488113291223388e-13 -0.9752035159903524
  outer loop
    vertex 34.70775909754781 62.84931299314451 18.383921571558062
    vertex 34.32589029280074 63.849312993143954 18.297261328877518
    vertex 34.70775909754623 63.849312993144565 18.383921571558062
  endloop
endfacet
facet normal -0.7048912346485847 -1.1109940031267687e-12 0.7093154074990857
  outer loop
    vertex 37.2202847374781 64.84931299314852 15.056579636923525
    vertex 36.664779302136466 63.84931299314764 14.5045390241957
    vertex 37.22028473747968 63.84931299314852 15.056579636923525
  endloop
endfacet
facet normal -0.7048912346485847 -1.1109940031267687e-12 0.7093154074990857
  outer loop
    vertex 36.664779302136466 63.84931299314764 14.5045390241957
    vertex 37.2202847374781 64.84931299314852 15.056579636923525
    vertex 36.66477930213488 64.84931299314763 14.5045390241957
  endloop
endfacet
facet normal -0.6792618133015437 -1.0705989293614175e-12 0.7338960341835205
  outer loop
    vertex 35.99981457627769 63.84931299314659 15.931866687339635
    vertex 35.71243661179716 62.8493129931461 15.665882313307423
    vertex 35.99981457627927 62.84931299314655 15.931866687339635
  endloop
endfacet
facet normal -0.6792618133015437 -1.0705989293614175e-12 0.7338960341835205
  outer loop
    vertex 35.71243661179716 62.8493129931461 15.665882313307423
    vertex 35.99981457627769 63.84931299314659 15.931866687339635
    vertex 35.71243661179558 63.84931299314614 15.665882313307423
  endloop
endfacet
facet normal -0.8846950271222956 -1.3943865683322788e-12 -0.466170257508006
  outer loop
    vertex 36.252910293291926 63.84931299314699 17.41036002788232
    vertex 36.070368007377226 62.84931299314666 17.756787647381184
    vertex 36.07036800737565 63.849312993146704 17.756787647381184
  endloop
endfacet
facet normal -0.8846950271222956 -1.3943865683322788e-12 -0.466170257508006
  outer loop
    vertex 36.070368007377226 62.84931299314666 17.756787647381184
    vertex 36.252910293291926 63.84931299314699 17.41036002788232
    vertex 36.2529102932935 62.849312993146945 17.41036002788232
  endloop
endfacet
facet normal -0.9752035159903524 -1.537038914427325e-12 -0.22130996904806352
  outer loop
    vertex 36.33957053597248 63.84931299314714 17.02849122313684
    vertex 36.2529102932935 62.849312993146945 17.41036002788232
    vertex 36.252910293291926 63.84931299314699 17.41036002788232
  endloop
endfacet
facet normal -0.9752035159903524 -1.537038914427325e-12 -0.22130996904806352
  outer loop
    vertex 36.2529102932935 62.849312993146945 17.41036002788232
    vertex 36.33957053597248 63.84931299314714 17.02849122313684
    vertex 36.33957053597405 62.84931299314708 17.02849122313684
  endloop
endfacet
facet normal -0.5330832393356703 -8.402037831620711e-13 -0.8460627990518131
  outer loop
    vertex 35.47308356672561 63.84931299314576 18.252909587963742
    vertex 35.80438363334501 62.84931299314625 18.0441656118633
    vertex 35.4730835667272 62.849312993145716 18.252909587963742
  endloop
endfacet
facet normal -0.5330832393356703 -8.402037831620711e-13 -0.8460627990518131
  outer loop
    vertex 35.80438363334501 62.84931299314625 18.0441656118633
    vertex 35.47308356672561 63.84931299314576 18.252909587963742
    vertex 35.804383633343434 63.84931299314629 18.0441656118633
  endloop
endfacet
facet normal -0.2959417026888095 -4.664399850659088e-13 -0.9552060032315797
  outer loop
    vertex 35.09904535956296 63.84931299314517 18.36879401867701
    vertex 35.4730835667272 62.849312993145716 18.252909587963742
    vertex 35.09904535956453 62.849312993145126 18.36879401867701
  endloop
endfacet
facet normal -0.2959417026888095 -4.664399850659088e-13 -0.9552060032315797
  outer loop
    vertex 35.4730835667272 62.849312993145716 18.252909587963742
    vertex 35.09904535956296 63.84931299314517 18.36879401867701
    vertex 35.47308356672561 63.84931299314576 18.252909587963742
  endloop
endfacet
endsolid numpad 1.0
